# xmcd
#
# Track frame offsets: 
#        150
#        16822
#        39360
#        53476
#        67716
#        84298
#        101982
#        120838
#        133196
#        150413
#
# Disc length: 2267 seconds
#
# Revision: 2
# Processed by: cddbd v1.5.2PL0 Copyright (c) Steve Scherf et al.
# Submitted via: ExactAudioCopyFreeDBPlugin 1.0
#
DISCID=6808d90a
DTITLE=Various Artist - Blues Road Trip (Rounder EasyDisc)
DYEAR=1998
DGENRE=Blues
TTITLE0=Robert Ealey - Goin' to New York
TTITLE1=Bobby King and Terry Evans - One Way Ticket to Memphis
TTITLE2=Jimmy Morello - Back to New Orleans
TTITLE3=Marcia Ball - Mobile
TTITLE4=The Crawl - Full Moon Over Dallas
TTITLE5=Smokey Wilson - Sittin' in Jackson
TTITLE6=James Harman - Hollywood Girls
TTITLE7=Larry Davis - Little Rock
TTITLE8=Pat Boyack and The Prowlers - Goin' to Chicago
TTITLE9=Clarence "Gatemouth" Brown - St. Louis Blues
EXTD=
EXTT0=
EXTT1=
EXTT2=
EXTT3=
EXTT4=
EXTT5=
EXTT6=
EXTT7=
EXTT8=
EXTT9=
PLAYORDER=
